# Alias OBJ Model File
# Exported from SketchUp, (c) 2000-2012 Trimble Navigation Limited
# File units = centimeters

mtllib lamps.mtl

g Mesh1 Model

usemtl FrontColor
v -6.68587 5.24164 -1
vt -0.393701 -0.82815
vn -0.609711 0.792624 -0
v -13.5 -1.50278e-30 -1
vt -0.393701 -4.21277
v -13.5 -1.50278e-30 -0
vt 0 -4.21277
v -6.68587 5.24164 -0
vt 0 -0.82815
f 1/1/1 2/2/1 3/3/1 4/4/1 

vt 5.31496 -5.91646e-31
vn 0 0 -1
vt 2.63223 2.06364
v -6.31413 5.24164 -1
vt 2.48588 2.06364
v -6.31413 4.75836 -1
vt 2.48588 1.87337
v -12.5 -1.50278e-30 -1
vt 4.92126 -5.91646e-31
f 2/5/2 1/6/2 5/7/2 6/8/2 7/9/2 

vt -2.63223 0
vn 3.03428e-15 1 -0
v -6.31413 5.24164 -0
vt -2.48588 0
vt -2.48588 0.393701
vt -2.63223 0.393701
f 4/10/3 8/11/3 5/12/3 1/13/3 

v -12.5 -1.50278e-30 -0
vt -4.92126 -5.91646e-31
vn 0 0 1
v -6.31413 4.75836 -0
vt -2.48588 1.87337
vt -2.48588 2.06364
vt -2.63223 2.06364
vt -5.31496 -5.91646e-31
f 9/14/4 10/15/4 8/16/4 4/17/4 3/18/4 

vn 0.609711 -0.792624 -0
vt 0 -3.90071
vt 0.393701 -3.90071
vt 0.393701 -0.82815
f 10/4/5 9/19/5 7/20/5 6/21/5 

vt 4.92126 0.393701
vn 0 -1 -0
vt 4.92126 0
vt 5.31496 0
vt 5.31496 0.393701
f 7/22/6 9/23/6 3/24/6 2/25/6 

v -5.81413 4.75836 1
vt 2.28903 -0.393701
vt 2.48588 0
vt 2.48588 0.393701
v -5.81413 4.75836 -2
vt 2.28903 0.787402
v -4.81413 4.75836 -2
vt 1.89533 0.787402
v -4.31413 4.75836 -1
vt 1.69847 0.393701
v -4.31413 4.75836 -0
vt 1.69847 0
v -4.81413 4.75836 1
vt 1.89533 -0.393701
f 11/26/6 10/27/6 6/28/6 12/29/6 13/30/6 14/31/6 15/32/6 16/33/6 

vt -1.11172 1.87337
vn -0.894427 -2.43636e-30 0.447214
vt -0.671547 1.87337
v -5.81413 5.24164 1
vt -0.671547 2.06364
vt -1.11172 2.06364
f 10/34/7 11/35/7 17/36/7 8/37/7 

vt -2.28903 1.87337
vt -1.89533 1.87337
v -4.81413 5.24164 1
vt -1.89533 2.06364
vt -2.28903 2.06364
f 11/38/4 16/39/4 18/40/4 17/41/4 

vt -1.19975 1.87337
vn 0.894427 0 0.447214
vt -0.759581 1.87337
v -4.31413 5.24164 -0
vt -0.759581 2.06364
vt -1.19975 2.06364
f 16/42/8 15/43/8 19/44/8 18/45/8 

vt 0 1.87337
vn 1 0 -0
vt 0.393701 1.87337
v -4.31413 5.24164 -1
vt 0.393701 2.06364
vt 0 2.06364
f 15/46/9 14/47/9 20/48/9 19/49/9 

vt 1.11172 1.87337
vn 0.894427 -4.28608e-17 -0.447214
vt 1.55189 1.87337
v -4.81413 5.24164 -2
vt 1.55189 2.06364
vt 1.11172 2.06364
f 14/50/10 13/51/10 21/52/10 20/53/10 

vt 1.89533 1.87337
vt 2.28903 1.87337
v -5.81413 5.24164 -2
vt 2.28903 2.06364
vt 1.89533 2.06364
f 13/54/2 12/55/2 22/56/2 21/57/2 

vt 0.31941 1.87337
vn -0.894427 -4.28608e-17 -0.447214
vt 0.759581 1.87337
vt 0.759581 2.06364
vt 0.31941 2.06364
f 12/58/11 6/59/11 5/60/11 22/61/11 

vt -0.393701 1.87337
vn -1 0 -0
vt -0.393701 2.06364
f 6/62/12 10/46/12 8/49/12 5/63/12 

vn 0 1 -0
vt -2.28903 -0.393701
vt -1.89533 -0.393701
vt -1.69847 0
vt -1.69847 0.393701
vt -1.89533 0.787402
vt -2.28903 0.787402
f 8/11/13 17/64/13 18/65/13 19/66/13 20/67/13 21/68/13 22/69/13 5/12/13 

g Mesh2 Model

v 12.5 -1.50278e-30 -1
v 6.31413 4.75836 -1
v 6.31413 5.24164 -1
v 6.68587 5.24164 -1
v 13.5 -1.50278e-30 -1
f 23/14/2 24/15/2 25/16/2 26/17/2 27/18/2 

vn -0.609711 -0.792624 -0
vt -0.393701 -3.90071
v 12.5 -1.50278e-30 -0
v 6.31413 4.75836 -0
f 24/1/14 23/70/14 28/19/14 29/4/14 

vt -4.92126 0
vt -4.92126 0.393701
vt -5.31496 0.393701
v 13.5 -1.50278e-30 -0
vt -5.31496 0
f 28/71/6 23/72/6 27/73/6 30/74/6 

v 6.68587 5.24164 -0
vn 0.609711 0.792624 -0
vt 0.393701 -4.21277
f 31/4/15 30/3/15 27/75/15 26/21/15 

v 6.31413 5.24164 -0
f 30/5/4 31/6/4 32/7/4 29/8/4 28/9/4 

vt 2.63223 0.393701
vn -1.21371e-14 1 -0
vt 2.63223 0
f 26/76/16 25/28/16 32/27/16 31/77/16 

v 4.31413 5.24164 -0
v 4.81413 5.24164 1
v 5.81413 5.24164 1
v 5.81413 5.24164 -2
v 4.81413 5.24164 -2
v 4.31413 5.24164 -1
f 33/32/13 34/33/13 35/26/13 32/27/13 25/28/13 36/29/13 37/30/13 38/31/13 

v 4.31413 4.75836 -0
vn -0.894427 0 0.447214
v 4.81413 4.75836 1
vt 1.19975 1.87337
vt 1.19975 2.06364
f 39/59/17 40/78/17 34/79/17 33/60/17 

v 4.31413 4.75836 -1
v 4.81413 4.75836 -2
v 5.81413 4.75836 -2
v 5.81413 4.75836 1
f 40/65/6 39/66/6 41/67/6 42/68/6 43/69/6 24/12/6 29/11/6 44/64/6 

f 41/62/12 39/46/12 33/49/12 38/63/12 

vt -1.55189 1.87337
vn -0.894427 0 -0.447214
vt -1.55189 2.06364
f 42/80/18 41/34/18 38/37/18 37/81/18 

f 43/38/2 42/39/2 37/40/2 36/41/2 

vn 0.894427 0 -0.447214
vt -0.31941 1.87337
vt -0.31941 2.06364
f 24/43/19 43/82/19 36/83/19 25/44/19 

f 29/46/9 24/47/9 25/48/9 32/49/9 

vt 0.671547 1.87337
vt 0.671547 2.06364
f 44/84/8 29/50/8 32/53/8 35/85/8 

f 40/54/4 44/55/4 35/56/4 34/57/4 

