# Alias OBJ Model File
# Exported from SketchUp, (c) 2000-2012 Trimble Navigation Limited
# File units = centimeters

mtllib platform.mtl

g Mesh1 Model

usemtl FrontColor
v -2.5 0 -2
vt -0.984252 0.787402
vn 0 1 -0
v -2.5 0 2
vt -0.984252 -0.787402
v 2.5 0 2
vt 0.984252 -0.787402
v 2.5 0 -2
vt 0.984252 0.787402
f 1/1/1 2/2/1 3/3/1 4/4/1 

vt 0.787402 0
vn -1 0 -0
vt -0.787402 0
v -2.5 -0.5 -2
vt -0.787402 -0.19685
v -2.5 -0.5 2
vt 0.787402 -0.19685
f 2/5/2 1/6/2 5/7/2 6/8/2 

vt 0.984252 0
vn 0 0 -1
vt -0.984252 0
v 2.5 -0.5 -2
vt -0.984252 -0.19685
vt 0.984252 -0.19685
f 1/9/3 4/10/3 7/11/3 5/12/3 

vn 1 0 -0
v 2.5 -0.5 2
f 4/5/4 3/6/4 8/7/4 7/8/4 

vn 0 0 1
f 3/9/5 2/10/5 6/11/5 8/12/5 

vn 0 -1 -0
f 8/2/6 6/3/6 5/4/6 7/1/6 

