# Alias OBJ Model File
# Exported from SketchUp, (c) 2000-2012 Trimble Navigation Limited
# File units = centimeters

mtllib ship.mtl

g Mesh1 Model

usemtl FrontColor
v 0.2665 -0.45305 -2.4969
vt -0.104921 0.983031
vn 0 -1 -0
v 0.2665 -0.45305 -0.2952
vt -0.104921 0.11622
v -0.2665 -0.45305 -0.2952
vt 0.104921 0.11622
v -0.2665 -0.45305 -2.4969
vt 0.104921 0.983031
v -5.63993e-16 -0.45305 -2.4969
vt 2.22045e-16 0.983031
f 1/1/1 2/2/1 3/3/1 4/4/1 5/5/1 

vt 0.11622 -0.178366
vn 1 0 -0
vt 0.983031 -0.178366
v 0.2665 -0.226525 -1.0004
vt 0.393858 -0.0891831
v 0.2665 -0.226525 -0
vt 0 -0.0891831
v 0.2665 -0.226525 0.1271
vt -0.0500394 -0.0891831
v 0.2665 -0.339787 0.1271
vt -0.0500394 -0.133775
f 2/6/2 1/7/2 6/8/2 7/9/2 8/10/2 9/11/2 

v 0.8815 -0.226525 -0.718525
vt 0.282884 0.294834
vn 0.345633 -0.93837 8.18078e-17
vt 0.11622 0.0368057
vt 0.983031 0.0368057
v 0.8815 -0.226525 -1.0004
vt 0.393858 0.294834
f 10/12/3 2/13/3 1/14/3 11/15/3 

v 0.42025 -0.226525 0.1271
vt 0.0352981 0.0907274
vn 0.489551 -0.830082 0.267028
vt 0.152271 -0.0692017
vt 0.414527 0.0907274
v 0.715989 -0.226525 -0.415089
vt 0.278448 0.0907274
f 12/16/4 2/17/4 10/18/4 13/19/4 

vt 0.00958292 0.0808007
vn 0.579745 -0.786984 0.211072
vt -0.0111255 0.00852603
vt 0.145102 -0.0637487
f 12/20/5 9/21/5 2/22/5

vt 0.104921 -0.133775
vn 0 0 1
vt 0.165453 -0.0891831
vt 0.104921 -0.0891831
f 9/23/6 12/24/6 8/25/6

v 0.42025 0.226525 0.1271
vt 0.165453 0.0891831
v 0.2665 0.226525 0.1271
vt 0.104921 0.0891831
f 8/25/6 12/24/6 14/26/6 15/27/6 

v -0.42025 -0.226525 0.1271
vt -0.165453 0.00193947
vn 0 -0.881225 0.472696
vt -0.104921 -0.186729
vt 0.104921 -0.186729
vt 0.165453 0.00193947
vt 0.104921 0.00193947
v -0.2665 -0.226525 0.1271
vt -0.104921 0.00193947
f 16/28/7 3/29/7 2/30/7 12/31/7 8/32/7 17/33/7 

vt -0.152271 -0.0692017
vn -0.489551 -0.830082 0.267028
vt -0.0352981 0.0907274
v -0.715989 -0.226525 -0.415089
vt -0.278448 0.0907274
v -0.8815 -0.226525 -0.718525
vt -0.414527 0.0907274
f 3/34/8 16/35/8 18/36/8 19/37/8 

vt -0.00958292 0.0808007
vn -0.579745 -0.786984 0.211072
vt -0.145102 -0.0637487
v -0.2665 -0.339787 0.1271
vt 0.0111255 0.00852603
f 16/38/9 3/39/9 20/40/9

vt -0.104921 0.0136771
vn 0 -0.965864 0.259049
vt -0.104921 -0.158459
vt 0.104921 -0.158459
vt 0.104921 0.0136771
f 20/41/10 3/42/10 2/43/10 9/44/10 

v -0.2665 -0.226525 -0
vn -1 0 -0
v -0.2665 -0.226525 -1.0004
vt -0.393858 -0.0891831
vt -0.983031 -0.178366
vt -0.11622 -0.178366
vt 0.0500394 -0.133775
vt 0.0500394 -0.0891831
f 21/9/11 22/45/11 4/46/11 3/47/11 20/48/11 17/49/11 

vt -0.104921 0.393858
vt -0.104921 0
vt 0.104921 0
vt 0.104921 0.393858
f 6/50/1 7/51/1 21/52/1 22/53/1 

v 0.2665 0.226525 -0
vt 0 0.0891831
v 0.2665 0.226525 -1.0004
vt -0.393858 0.0891831
f 7/9/11 23/54/11 24/55/11 6/45/11 

vt 0.0500394 0.0891831
f 23/54/11 7/9/11 8/49/11 15/56/11 

vt -0.104921 -0.0891831
f 7/25/6 23/27/6 21/57/6

v -0.2665 0.226525 -0
vt -0.104921 0.0891831
f 25/58/6 21/57/6 23/27/6

v -0.2665 0.226525 -1.0004
f 21/9/11 25/54/11 26/55/11 22/45/11 

v -0.2665 0.226525 0.1271
vt -0.0500394 0.0891831
f 21/9/2 25/54/2 27/59/2 17/10/2 

v -0.2665 5.63993e-16 -2.4969
vt -0.983031 2.22045e-16
v -0.2665 0.339788 0.1271
vt 0.0500394 0.133775
v -0.2665 0.45305 -0.359263
vt -0.141442 0.178366
v -0.2665 0.45305 -0.845625
vt -0.332923 0.178366
f 28/60/11 4/46/11 22/45/11 26/55/11 25/54/11 27/56/11 29/61/11 30/62/11 31/63/11 

vt 0.104921 -0.178366
vn 0 0 -1
vt 0.104921 2.22045e-16
v 0.2665 5.63993e-16 -2.4969
vt -0.104921 2.22045e-16
vt -0.104921 -0.178366
vt 2.22045e-16 -0.178366
f 4/64/12 28/65/12 32/66/12 1/67/12 5/68/12 

vt -0.869364 -0.178366
vn -0.92494 0 -0.380112
v -0.8815 -0.226525 -1.0004
vt -0.232378 -0.0891831
v -0.8815 0.226525 -1.0004
vt -0.232378 0.0891831
vt -0.869364 2.22045e-16
f 4/69/13 33/70/13 34/71/13 28/72/13 

vt -0.347047 -0.40277
vn -9.48188e-17 -0.988737 0.149665
vt -0.104921 -0.998655
vt -0.104921 -0.40277
f 33/73/14 4/74/14 22/75/14

vt -0.11622 0.0368057
vn -0.345633 -0.93837 5.45385e-17
vt -0.282884 0.294834
vt -0.393858 0.294834
vt -0.983031 0.0368057
f 3/76/15 19/77/15 33/78/15 4/79/15 

vt 0.165453 -0.0500394
vn -1.67213e-15 -1 5.88943e-16
vt 0.281886 0.163421
v -0.682884 -0.226525 -0.695038
vt 0.268852 0.273637
vt 0.347047 0.282884
vt 0.347047 0.393858
vt 0.104921 5.25237e-17
vt 0.104921 -0.0500394
f 16/80/16 18/81/16 35/82/16 19/83/16 33/84/16 22/53/16 21/85/16 17/86/16 

v -0.715989 0.226525 -0.415089
vt -0.278448 0.0891831
vn -0.877896 0 0.478852
v -0.8815 0.226525 -0.718525
vt -0.414527 0.0891831
vt -0.414527 -0.0891831
vt -0.278448 -0.0891831
vt -0.0352981 -0.0891831
v -0.42025 0.226525 0.1271
vt -0.0352981 0.0891831
f 36/87/17 37/88/17 19/89/17 18/90/17 16/91/17 38/92/17 

vt -0.347047 0.282884
vn 0 1 -0
vt -0.281886 0.163421
v -0.682884 0.226525 -0.695038
vt -0.268852 0.273637
f 37/93/18 36/94/18 39/95/18

v -0.914374 0.226525 -0.722412
vt -0.35999 0.284414
v -1.01437 0.226525 0.123213
vt -0.39936 -0.0485089
v -0.782884 0.226525 0.150587
vt -0.308222 -0.0592864
f 37/93/18 40/96/18 41/97/18 42/98/18 36/94/18 

vt -0.390899 0.0891831
vn -0.117437 0 0.99308
v -0.914374 -0.226525 -0.722412
vt -0.390899 -0.0891831
vt -0.377867 -0.0891831
vt -0.377867 0.0891831
f 40/99/19 43/100/19 19/101/19 37/102/19 

vt -0.24017 0.0891831
vn -0.99308 0 -0.117437
vt -0.24017 -0.0891831
v -1.01437 -0.226525 0.123213
vt 0.095073 -0.0891831
vt 0.095073 0.0891831
f 40/103/20 43/104/20 44/105/20 41/106/20 

vt -0.350377 0.0891831
vt -0.350377 -0.0891831
f 40/103/20 34/107/20 33/108/20 43/104/20 

vt -0.347047 0.393858
f 34/109/18 40/96/18 37/93/18

vt -0.165453 -0.0500394
vt -0.104921 -0.0500394
f 34/109/18 37/93/18 39/95/18 36/94/18 38/110/18 27/111/18 25/51/18 26/50/18 

vt -0.299127 -0.0891831
vt -0.299127 0.0891831
f 37/102/19 19/101/19 35/112/19 39/113/19 

f 18/81/1 19/83/1 35/82/1

vn 4.30131e-15 -1 3.74415e-17
v -0.782884 -0.226525 0.150587
vt 0.308222 -0.0592864
vt 0.39936 -0.0485089
vt 0.35999 0.284414
f 18/81/21 45/114/21 44/115/21 43/116/21 19/83/21 

vt 0.24017 -0.0891831
vn 0.99308 1.06724e-18 0.117437
vt 0.24017 0.0891831
vt 0.129186 0.0891831
vt -0.095073 0.0891831
vt -0.095073 -0.0891831
vt 0.129186 -0.0891831
f 35/117/22 39/118/22 36/119/22 42/120/22 45/121/22 18/122/22 

f 41/99/19 44/100/19 45/112/19 42/113/19 

vn 3.38396e-14 -1 4.00173e-15
f 43/116/23 33/84/23 19/83/23

vt -0.165453 0.0891831
vt -0.165453 -0.0891831
f 38/123/6 16/124/6 17/57/6 27/58/6 

vt -0.104921 -0.133775
f 16/124/6 20/125/6 17/57/6

f 20/125/6 9/23/6 8/25/6 17/57/6 

f 7/52/18 21/51/18 17/111/18 8/86/18 

vn 1.67213e-15 -1 5.88943e-16
v 0.682884 -0.226525 -0.695038
vt -0.104921 5.25237e-17
f 11/109/24 10/93/24 46/95/24 13/94/24 12/110/24 8/111/24 7/126/24 6/50/24 

vn -3.38396e-14 -1 4.00173e-15
v 0.914374 -0.226525 -0.722412
f 11/109/25 47/96/25 10/93/25

vn 0.99308 0 -0.117437
vt 0.350377 -0.0891831
v 0.8815 0.226525 -1.0004
vt 0.350377 0.0891831
v 0.914374 0.226525 -0.722412
f 47/117/26 11/127/26 48/128/26 49/118/26 

vt -0.347047 0.0891831
vt -0.347047 -0.0891831
f 6/57/12 24/58/12 48/129/12 11/130/12 

f 24/58/12 6/57/12 22/25/12 26/27/12 

vt 0.983031 2.22045e-16
vt 0.393858 0.0891831
f 1/7/2 32/131/2 24/132/2 6/8/2 

vt 0.869364 2.22045e-16
vn 0.92494 0 -0.380112
vt 0.232378 0.0891831
vt 0.232378 -0.0891831
vt 0.869364 -0.178366
f 32/133/27 48/134/27 11/135/27 1/136/27 

vt -0.347047 -0.376075
vn -3.16063e-17 0.988737 -0.149665
vt -0.104921 -0.971959
vt -0.104921 -0.376075
f 48/137/28 32/138/28 24/139/28

v 0.2665 0.45305 -0.845625
vt 0.332923 0.178366
v 0.2665 0.45305 -0.359263
vt 0.141442 0.178366
v 0.2665 0.339788 0.1271
vt -0.0500394 0.133775
f 23/54/2 24/132/2 32/131/2 50/140/2 51/141/2 52/142/2 15/59/2 

f 23/52/18 24/53/18 26/50/18 25/51/18 

v 0.715989 0.226525 -0.415089
v 0.682884 0.226525 -0.695038
v 0.8815 0.226525 -0.718525
f 14/80/18 53/81/18 54/82/18 55/83/18 48/84/18 24/53/18 23/52/18 15/86/18 

vt 0.414527 0.0891831
vn 0.877896 0 0.478852
vt 0.278448 0.0891831
vt 0.0352981 0.0891831
vt 0.0352981 -0.0891831
vt 0.278448 -0.0891831
vt 0.414527 -0.0891831
f 55/143/29 53/144/29 14/145/29 12/146/29 13/147/29 10/148/29 

f 53/81/18 55/83/18 54/82/18

v 0.782884 0.226525 0.150587
v 1.01437 0.226525 0.123213
f 53/81/18 56/114/18 57/115/18 49/116/18 55/83/18 

vn -0.99308 1.06724e-18 0.117437
vt -0.129186 -0.0891831
v 0.782884 -0.226525 0.150587
vt -0.129186 0.0891831
f 54/103/30 46/104/30 13/149/30 58/105/30 56/106/30 53/150/30 

vt 0.377867 -0.0891831
vn 0.117437 0 0.99308
vt 0.377867 0.0891831
vt 0.299127 0.0891831
vt 0.299127 -0.0891831
f 10/151/31 55/152/31 54/153/31 46/154/31 

vt 0.390899 0.0891831
vt 0.390899 -0.0891831
f 49/155/31 55/152/31 10/151/31 47/156/31 

f 49/116/18 48/84/18 55/83/18

vn -4.30131e-15 -1 3.74415e-17
v 1.01437 -0.226525 0.123213
f 10/93/32 47/96/32 59/97/32 58/98/32 13/94/32 

f 47/117/26 49/118/26 57/120/26 59/121/26 

f 57/155/31 56/153/31 58/154/31 59/156/31 

f 10/93/1 13/94/1 46/95/1

f 25/52/1 23/51/1 15/111/1 27/86/1 

vt 0.104921 0.133775
vt -0.104921 0.133775
f 15/27/6 52/157/6 29/158/6 27/58/6 

vt -0.104921 0.178211
vn 0 0.97394 0.226808
vt -0.104921 -0.0183942
vt 0.104921 -0.0183942
vt 0.104921 0.178211
f 30/159/33 29/160/33 52/161/33 51/162/33 

vt -0.104921 0.141442
vt 0.104921 0.141442
vt 0.104921 0.332923
vt -0.104921 0.332923
f 30/163/18 51/164/18 50/165/18 31/166/18 

vt -0.104921 -0.273865
vn 0 0.964362 -0.264586
vt -0.104921 -0.947998
vt 0.104921 -0.947998
vt 0.104921 -0.273865
f 50/167/34 32/168/34 28/169/34 31/170/34 

vt 0.104921 -0.971959
vn -1.65594e-17 0.988737 -0.149665
vt 0.347047 -0.376075
vt 0.104921 -0.376075
f 28/171/35 34/172/35 26/173/35 24/139/35 32/138/35 

vt 0.347047 -0.0891831
vt 0.347047 0.0891831
f 26/27/12 22/25/12 33/174/12 34/175/12 

v -5.63993e-16 -0.45305 -2.83592
vt 2.22045e-16 -0.811744
vn 0 0.599134 -0.800649
vt 0.104921 -0.588967
vt -0.104921 -0.588967
f 60/176/36 28/177/36 32/178/36

vt -0.707995 2.99871e-16
vn -0.786177 -1.12792e-16 -0.618002
vt -0.87777 -0.178366
vt -0.707995 -0.178366
f 28/179/37 60/180/37 4/181/37

vt 2.22045e-16 1.1165
f 4/4/1 60/182/1 5/5/1

f 60/182/1 1/1/1 5/5/1

vt 0.87777 -0.178366
vn 0.786177 -1.12792e-16 -0.618002
vt 0.707995 2.99871e-16
vt 0.707995 -0.178366
f 60/183/38 32/184/38 1/185/38

vt 0.104921 -0.40277
vn 0 -0.988737 0.149665
vt -2.22045e-16 -0.998655
vt 0.104921 -0.998655
f 6/186/39 22/75/39 4/74/39 5/187/39 1/188/39 

vn 6.32126e-17 -0.988737 0.149665
vt 0.347047 -0.40277
f 6/186/40 1/188/40 11/189/40

