# Alias OBJ Model File
# Exported from SketchUp, (c) 2000-2012 Trimble Navigation Limited
# File units = centimeters

mtllib wall.mtl

g Mesh1 Model

usemtl M_0046_Gold
v 12.5 0 -150
vt -4.92126 59.0551
vn 0 -1 -0
v 13.5 0 -150
vt -5.31496 59.0551
v 13.5 0 -0
vt -5.31496 0
v 12.5 0 -0
vt -4.92126 0
f 1/1/1 2/2/1 3/3/1 4/4/1 

vn 0 0 -1
v 12.5 5 -150
vt -4.92126 1.9685
v 13.5 5 -150
vt -5.31496 1.9685
f 1/4/2 5/5/2 6/6/2 2/3/2 

vt -59.0551 0
vn -1 0 -0
vt 0 0
v 12.5 10 -0
vt 0 3.93701
vt -59.0551 1.9685
f 1/7/3 4/8/3 7/9/3 5/10/3 

vt 4.92126 0
vn 0 0 1
vt 5.31496 0
v 13.5 10 -0
vt 5.31496 3.93701
vt 4.92126 3.93701
f 4/11/4 3/12/4 8/13/4 7/14/4 

vt 59.0551 0
vn 1 0 -0
vt 59.0551 1.9685
f 2/15/5 6/16/5 8/9/5 3/8/5 

vt -5.31496 0.131161
vn 0 0.999445 -0.0333148
vt -5.31496 -58.9568
vt -4.92126 -58.9568
vt -4.92126 0.131161
f 8/17/6 6/18/6 5/19/6 7/20/6 

g Mesh2 Model

v -13.5 0 -150
vt 5.31496 59.0551
v -12.5 0 -150
vt 4.92126 59.0551
v -12.5 0 -0
v -13.5 0 -0
f 9/21/1 10/22/1 11/11/1 12/12/1 

vt 5.31496 1.06581e-13
vn 9.02389e-15 -1.80478e-15 -1
v -13.5 5 -150
vt 5.31496 1.9685
v -12.5 5 -150
vt 4.92126 1.9685
vt 4.92126 1.06581e-13
f 9/23/7 13/24/7 14/25/7 10/26/7 

v -13.5 10 -0
f 9/7/3 12/8/3 15/9/3 13/10/3 

v -12.5 10 -0
vt -4.92126 3.93701
vt -5.31496 3.93701
f 12/3/4 11/4/4 16/27/4 15/28/4 

f 10/15/5 14/16/5 16/9/5 11/8/5 

vt 4.92126 0.131161
vt 4.92126 -58.9568
vt 5.31496 -58.9568
vt 5.31496 0.131161
f 16/29/6 14/30/6 13/31/6 15/32/6 

